<svg width="194" height="50" viewBox="0 0 194 50" fill="none" xmlns="http://www.w3.org/2000/svg">
<path d="M42.8605 47.8737H34.6751L12.3103 0H20.4957L42.8605 47.8737Z" fill="white"/>
<path d="M12.2458 0L34.6106 47.8737H183.172V0H12.2458Z" fill="#E20A0A"/>
<path d="M0 0L22.3003 47.8737H30.4857L8.18538 0H0Z" fill="#E20A0A"/>
<path d="M48.21 12.951H53.8817C55.6219 12.951 56.7821 13.5309 57.5555 14.6263C58.2644 15.7216 58.6512 17.3325 58.6512 19.4588C58.6512 21.585 58.3289 23.1959 57.6844 24.2912C57.0399 25.3866 55.8797 25.902 54.204 25.902H52.4638V34.3428H48.2744V12.951H48.21ZM52.6571 22.0361C53.1727 22.0361 53.5595 21.9716 53.8173 21.7783C54.0751 21.585 54.204 21.3273 54.2684 20.9407C54.3329 20.5541 54.3973 20.1031 54.3973 19.3943C54.3973 18.4923 54.2684 17.8479 54.0751 17.4613C53.8817 17.0747 53.495 16.8814 52.8505 16.8814H52.3993V22.0361H52.6571Z" fill="white"/>
<path d="M61.1003 32.9897C60.198 31.9587 59.7468 30.4768 59.7468 28.5438V18.3634C59.7468 16.4948 60.198 15.1417 61.1003 14.1752C62.0026 13.2088 63.2917 12.7577 65.0319 12.7577C66.7721 12.7577 68.0611 13.2088 68.9634 14.1752C69.8658 15.1417 70.3169 16.4948 70.3169 18.3634V28.5438C70.3169 30.4768 69.8658 31.9587 68.9634 32.9897C68.0611 34.0206 66.7721 34.5361 65.0319 34.5361C63.2917 34.5361 62.0026 34.0206 61.1003 32.9897ZM65.8053 30.0902C65.9342 29.768 65.9987 29.317 65.9987 28.6727V18.299C65.9987 17.8479 65.9342 17.4613 65.8053 17.1392C65.6764 16.817 65.4186 16.6881 65.0319 16.6881C64.3229 16.6881 63.9362 17.2036 63.9362 18.299V28.7371C63.9362 29.3814 64.0006 29.8325 64.1296 30.1546C64.2585 30.4768 64.5807 30.6057 64.9674 30.6057C65.4186 30.6057 65.6764 30.4768 65.8053 30.0902Z" fill="white"/>
<path d="M72.0571 34.3428V12.951H76.3109V30.6701H80.6937V34.2783H72.0571V34.3428Z" fill="white"/>
<path d="M81.7249 34.3428V12.951H85.8498V34.3428H81.7249Z" fill="white"/>
<path d="M88.4279 33.1186C87.59 32.1521 87.1388 30.6057 87.1388 28.4794V26.4175H91.3282V28.9948C91.3282 30.0258 91.6505 30.6057 92.3594 30.6057C92.7462 30.6057 93.004 30.4768 93.1329 30.2835C93.2618 30.0902 93.3262 29.7036 93.3262 29.1237C93.3262 28.4149 93.2618 27.835 93.0684 27.384C92.8751 26.933 92.6817 26.5464 92.4239 26.2242C92.1661 25.9021 91.7149 25.451 91.0704 24.8067L89.2013 22.9381C87.7834 21.5206 87.0744 19.9742 87.0744 18.299C87.0744 16.4948 87.4611 15.0773 88.3634 14.1108C89.2013 13.1443 90.4259 12.6933 92.0372 12.6933C93.9707 12.6933 95.3242 13.2088 96.2266 14.2397C97.0644 15.2706 97.5156 16.8814 97.5156 19.0077H93.1329V17.5258C93.1329 17.268 93.0684 17.0103 92.8751 16.8814C92.7462 16.6881 92.4884 16.6237 92.2305 16.6237C91.9083 16.6237 91.6505 16.6881 91.4571 16.8814C91.2638 17.0747 91.1993 17.3325 91.1993 17.6546C91.1993 18.3634 91.586 19.0722 92.4239 19.8454L94.9375 22.2294C95.5176 22.8093 95.9687 23.3247 96.3555 23.8402C96.7422 24.3557 97.0644 24.9356 97.2578 25.6443C97.5156 26.3531 97.58 27.1263 97.58 28.0928C97.58 30.2191 97.1933 31.7655 96.4199 32.8608C95.6465 33.9562 94.3575 34.4716 92.6173 34.4716C90.6837 34.5361 89.3302 34.0851 88.4279 33.1186Z" fill="white"/>
<path d="M99.0624 34.3428V12.951H103.316V20.6185H105.314V12.951H109.568V34.3428H105.314V24.6134H103.316V34.3428H99.0624Z" fill="white"/>
<path d="M119.107 34.3428V17.0747H116.593V12.951H125.939V17.0747H123.425V34.3428H119.107Z" fill="white"/>
<path d="M127.163 12.951H133.738C134.769 12.951 135.607 13.2088 136.187 13.6598C136.767 14.1108 137.154 14.8196 137.347 15.6572C137.54 16.4948 137.669 17.5902 137.669 18.9433C137.669 20.1675 137.54 21.0696 137.218 21.7783C136.896 22.4871 136.38 22.9381 135.607 23.1959C136.251 23.3247 136.702 23.6469 137.025 24.1624C137.347 24.6778 137.476 25.3866 137.476 26.2242L137.282 34.3428H133.093V25.9665C133.093 25.3866 132.964 25 132.771 24.8067C132.513 24.6134 132.126 24.549 131.482 24.549V34.2783H127.163V12.951ZM132.513 20.8763C133.093 20.8763 133.415 20.2319 133.415 18.9433C133.415 18.3634 133.415 17.9768 133.351 17.6546C133.286 17.3969 133.222 17.2036 133.093 17.0747C132.964 16.9459 132.771 16.8814 132.513 16.8814H131.482V20.8118H132.513V20.8763Z" fill="white"/>
<path d="M140.054 33.0541C139.216 32.0876 138.765 30.6057 138.765 28.6082V12.951H142.954V28.4149C142.954 29.1237 143.019 29.6392 143.147 30.0258C143.276 30.4124 143.534 30.6057 143.985 30.6057C144.437 30.6057 144.694 30.4124 144.823 30.0258C144.952 29.6392 145.017 29.1237 145.017 28.4149V12.951H149.206V28.6082C149.206 30.5412 148.755 32.0232 147.917 33.0541C147.079 34.0206 145.726 34.5361 143.985 34.5361C142.245 34.5361 140.892 34.0206 140.054 33.0541Z" fill="white"/>
<path d="M152.686 34.3428V17.0747H150.173V12.951H159.518V17.0747H157.005V34.3428H152.686Z" fill="white"/>
<path d="M160.678 34.3428V12.951H164.932V20.6185H166.93V12.951H171.184V34.3428H166.93V24.6134H164.932V34.3428H160.678Z" fill="white"/>
<path d="M20.4957 2.12628H12.3103L33.6439 47.8737H41.8292L20.4957 2.12628Z" fill="white"/>
<path d="M42.8605 50L41.8292 47.8737H33.6439L34.6751 50H42.8605Z" fill="#E20A0A"/>
<path d="M189.488 4.05928V0.902061H189.037V0.193298H190.713V0.966494H190.262V4.05928H189.488Z" fill="#E20A0A"/>
<path d="M190.971 4.05928V0.193298H192.131L192.453 2.57732L192.775 0.193298H193.936V4.05928H193.227V1.28866L192.775 4.05928H192.066L191.68 1.28866V4.05928H190.971Z" fill="#E20A0A"/>
</svg>
