<svg width="18" height="15" viewBox="0 0 18 15" fill="none" xmlns="http://www.w3.org/2000/svg">
<path d="M17.9756 1.73337C17.3145 2.02629 16.6044 2.2242 15.8579 2.31366C16.6282 1.85275 17.2045 1.12732 17.4792 0.272744C16.7555 0.70261 15.9634 1.00519 15.1375 1.16733C14.582 0.574262 13.8463 0.181169 13.0445 0.0490773C12.2428 -0.083014 11.4199 0.053287 10.7035 0.436819C9.98717 0.820351 9.41749 1.42966 9.08291 2.17013C8.74834 2.91061 8.66759 3.74084 8.85321 4.53191C7.38679 4.45828 5.95225 4.07714 4.64267 3.41321C3.33309 2.74928 2.17775 1.81741 1.25162 0.678077C0.934958 1.22433 0.752875 1.85766 0.752875 2.53216C0.752522 3.13937 0.902051 3.73727 1.1882 4.27282C1.47434 4.80838 1.88825 5.26502 2.39321 5.60224C1.80759 5.58361 1.2349 5.42537 0.722792 5.1407V5.1882C0.722733 6.03983 1.01732 6.86525 1.55656 7.52441C2.09581 8.18356 2.84649 8.63586 3.68125 8.80454C3.138 8.95156 2.56843 8.97322 2.01558 8.86787C2.2511 9.60065 2.70987 10.2414 3.32767 10.7005C3.94546 11.1596 4.69135 11.414 5.46092 11.4281C4.15453 12.4537 2.54116 13.0099 0.880333 13.0075C0.586135 13.0076 0.292185 12.9904 0 12.956C1.68584 14.04 3.64827 14.6152 5.6525 14.613C12.4371 14.613 16.146 8.99374 16.146 4.12024C16.146 3.96191 16.1421 3.80199 16.135 3.64366C16.8564 3.12193 17.4791 2.47587 17.974 1.73574L17.9756 1.73337Z" fill="#E20A0A"/>
</svg>
