<svg width="36" height="36" viewBox="0 0 36 36" fill="none" xmlns="http://www.w3.org/2000/svg">
<path d="M18 0C14.4399 0 10.9598 1.05568 7.99974 3.03355C5.03966 5.01141 2.73255 7.82263 1.37018 11.1117C0.0077991 14.4008 -0.348661 18.02 0.345873 21.5116C1.04041 25.0033 2.75474 28.2106 5.27208 30.7279C7.78943 33.2453 10.9967 34.9596 14.4884 35.6541C17.98 36.3487 21.5992 35.9922 24.8883 34.6298C28.1774 33.2674 30.9886 30.9603 32.9665 28.0003C34.9443 25.0402 36 21.5601 36 18C36 13.2261 34.1036 8.64773 30.7279 5.27208C27.3523 1.89642 22.7739 0 18 0ZM27.5747 19.1507L12.1461 26.865C11.9501 26.963 11.7322 27.0092 11.5133 26.9993C11.2943 26.9894 11.0815 26.9236 10.8951 26.8083C10.7087 26.693 10.5549 26.532 10.4482 26.3405C10.3416 26.149 10.2856 25.9335 10.2857 25.7143V10.2857C10.2858 10.0666 10.3419 9.85123 10.4487 9.65992C10.5554 9.46861 10.7093 9.30775 10.8957 9.19261C11.082 9.07746 11.2947 9.01184 11.5136 9.00199C11.7324 8.99213 11.9502 9.03836 12.1461 9.13628L27.5747 16.8506C27.788 16.9575 27.9673 17.1216 28.0926 17.3246C28.218 17.5276 28.2843 17.7614 28.2843 18C28.2843 18.2386 28.218 18.4724 28.0926 18.6754C27.9673 18.8784 27.788 19.0425 27.5747 19.1494V19.1507Z" fill="#E20A0A"/>
</svg>
